<?xml version="1.0" standalone="no"?>
<!DOCTYPE svg PUBLIC "-//W3C//DTD SVG 20010904//EN"
 "http://www.w3.org/TR/2001/REC-SVG-20010904/DTD/svg10.dtd">
<svg version="1.0" xmlns="http://www.w3.org/2000/svg"
 width="70.000000pt" height="70.000000pt" viewBox="0 0 70.000000 70.000000"
 preserveAspectRatio="xMidYMid meet">
<metadata>
Created by potrace 1.11, written by Peter Selinger 2001-2013
</metadata>
<g transform="translate(0.000000,70.000000) scale(0.100000,-0.100000)"
fill="#000000" stroke="none">
<path d="M253 686 c-104 -34 -176 -98 -222 -196 -21 -45 -26 -70 -26 -140 0
-76 3 -92 33 -152 38 -77 92 -130 171 -166 47 -22 70 -27 141 -27 104 0 174
29 245 100 71 71 100 141 100 245 0 71 -5 94 -27 141 -57 124 -164 197 -299
205 -47 2 -89 -1 -116 -10z m69 -158 c-7 -7 -12 -42 -12 -86 0 -40 -5 -82 -10
-93 -15 -27 -64 -25 -84 3 -20 28 -20 38 -1 38 8 0 15 -7 15 -15 0 -21 27 -30
45 -15 11 9 15 34 15 96 0 80 1 84 22 84 17 0 19 -3 10 -12z m78 -77 c0 -65 4
-92 15 -101 20 -16 71 -3 90 23 17 25 19 19 5 -17 -9 -24 -14 -26 -75 -26
l-65 0 0 105 c0 87 3 105 15 105 12 0 15 -17 15 -89z m15 -155 c-11 -8 -16
-19 -12 -30 4 -10 3 -15 -3 -11 -20 13 -2 55 24 55 5 0 1 -6 -9 -14z m-247
-21 c-3 -3 -9 2 -12 12 -6 14 -5 15 5 6 7 -7 10 -15 7 -18z m99 -12 c-3 -10
-5 -4 -5 12 0 17 2 24 5 18 2 -7 2 -21 0 -30z m97 -3 c-6 -5 -24 21 -24 34 0
6 6 1 14 -10 8 -10 12 -21 10 -24z m113 3 c-3 -10 -5 -4 -5 12 0 17 2 24 5 18
2 -7 2 -21 0 -30z m78 7 c14 -17 15 -21 3 -12 -13 10 -17 10 -21 0 -3 -7 -6 0
-6 16 -1 16 0 27 2 25 1 -2 11 -15 22 -29z m-225 -15 c0 -5 -5 -3 -10 5 -5 8
-10 20 -10 25 0 6 5 3 10 -5 5 -8 10 -19 10 -25z"/>
</g>
</svg>
